<svg aria-hidden="true" xmlns="http://www.w3.org/2000/svg" xmlns:xlink="http://www.w3.org/1999/xlink"><symbol viewBox="0 0 12 12" id="arrow-bg" xmlns="http://www.w3.org/2000/svg">
<path d="M0.221921 1.40222L5.61659 11.0272C5.69417 11.1655 5.84059 11.2512 5.99984 11.2512C6.1585 11.2512 6.3055 11.1655 6.3825 11.0272L11.7772 1.40222C11.8145 1.33514 11.8332 1.26164 11.8332 1.18814C11.8332 0.963553 11.6529 0.751221 11.3945 0.751221H0.605171C0.348504 0.751221 0.166504 0.96122 0.166504 1.18814C0.166504 1.26164 0.184587 1.33514 0.221921 1.40222Z"/>
</symbol><symbol viewBox="0 0 14 8" id="arrow-down" xmlns="http://www.w3.org/2000/svg">
<path d="M1 1L7 7L13 1" stroke-width="2" stroke-linecap="round" stroke-linejoin="round"/>
</symbol><symbol viewBox="0 0 40 40" id="arrow-left" xmlns="http://www.w3.org/2000/svg">
<path fill-rule="evenodd" clip-rule="evenodd" d="M20 0C8.96167 0 0 8.96167 0 20C0 31.0383 8.96167 40 20 40C31.0383 40 40 31.0383 40 20C40 8.96167 31.0383 0 20 0ZM20 1.66667C9.88167 1.66667 1.66667 9.88167 1.66667 20C1.66667 30.1183 9.88167 38.3333 20 38.3333C30.1183 38.3333 38.3333 30.1183 38.3333 20C38.3333 9.88167 30.1183 1.66667 20 1.66667ZM25 11.255L14.2667 20L25 28.7717L23.87 30L11.6667 20L23.8917 10L25 11.255Z"/>
</symbol><symbol viewBox="0 0 40 40" id="arrow-right" xmlns="http://www.w3.org/2000/svg">
<path fill-rule="evenodd" clip-rule="evenodd" d="M20 0C31.0383 0 40 8.96167 40 20C40 31.0383 31.0383 40 20 40C8.96167 40 0 31.0383 0 20C0 8.96167 8.96167 0 20 0ZM20 1.66667C30.1183 1.66667 38.3333 9.88167 38.3333 20C38.3333 30.1183 30.1183 38.3333 20 38.3333C9.88167 38.3333 1.66667 30.1183 1.66667 20C1.66667 9.88167 9.88167 1.66667 20 1.66667ZM15 11.255L25.7333 20L15 28.7717L16.13 30L28.3333 20L16.1083 10L15 11.255Z"/>
</symbol><symbol viewBox="0 0 24 24" id="calendar" xmlns="http://www.w3.org/2000/svg">
<path d="M20 20H16V16H20V20ZM14 10H10V14H14V10ZM20 10H16V14H20V10ZM8 16H4V20H8V16ZM14 16H10V20H14V16ZM8 10H4V14H8V10ZM24 2V24H0V2H3V3C3 4.103 3.897 5 5 5C6.103 5 7 4.103 7 3V2H17V3C17 4.103 17.897 5 19 5C20.103 5 21 4.103 21 3V2H24ZM22 8H2V22H22V8ZM20 1C20 0.448 19.553 0 19 0C18.447 0 18 0.448 18 1V3C18 3.552 18.447 4 19 4C19.553 4 20 3.552 20 3V1ZM6 3C6 3.552 5.553 4 5 4C4.447 4 4 3.552 4 3V1C4 0.448 4.447 0 5 0C5.553 0 6 0.448 6 1V3Z"/>
</symbol><symbol id="close" viewBox="0 0 80 80" xml:space="preserve" xmlns="http://www.w3.org/2000/svg">
<g>
	<polygon points="40,49.007 15.714,73.293 6.707,64.286 30.993,40 6.707,15.714 15.714,6.707 40,30.993    64.286,6.707 73.293,15.714 49.007,40 73.293,64.286 64.286,73.293  "/>
	<path d="M15.714,7.414l23.578,23.578L40,31.7l0.707-0.707L64.286,7.414l8.3,8.3L49.007,39.293L48.3,40   l0.707,0.707l23.578,23.579l-8.3,8.3L40.707,49.007L40,48.3l-0.707,0.707L15.714,72.586l-8.3-8.3l23.579-23.579L31.7,40   l-0.707-0.707L7.414,15.714L15.714,7.414 M64.286,6L40,30.286L15.714,6L6,15.714L30.286,40L6,64.286L15.714,74L40,49.714L64.286,74   L74,64.286L49.714,40L74,15.714L64.286,6L64.286,6z"/>
</g>
</symbol><symbol viewBox="0 0 30 30" id="earth" xmlns="http://www.w3.org/2000/svg">
<path d="M16.43 10.2137C16.3862 10.1312 16.8575 10.0863 16.9412 10.0863C17.0338 10.0975 16.6963 10.6512 16.43 10.2137ZM13.74 6.37375L13.875 6.335C13.955 6.40375 13.785 6.45375 13.8112 6.505C13.9187 6.69875 13.8375 6.815 13.8212 6.92C13.8038 7.02625 13.6912 6.98 13.635 7.03625C13.5688 7.11875 13.9575 7.13 13.9625 7.1425C13.9762 7.18375 13.4938 7.25375 13.5825 7.35625C13.7025 7.52625 14.6125 7.1125 14.4675 7.13625C14.7488 6.995 14.5037 6.98 14.3463 6.89875C14.2925 6.63 14.2475 6.215 14.08 6.04875L14.19 5.92125C13.9325 5.5475 13.74 6.37375 13.74 6.37375ZM30 15C30 23.2838 23.2838 30 15 30C6.715 30 0 23.2838 0 15C0 6.71625 6.715 0 15 0C23.2838 0 30 6.71625 30 15ZM19.6125 8.28625C19.605 8.10375 19.375 7.93125 19.135 8.2475C18.9662 8.465 18.9963 8.79625 18.905 8.94375C18.775 9.1625 19.6138 9.3675 19.6138 9.16125C19.645 8.815 20.5288 9.0825 20.7013 9.13C21.0113 9.21625 21.505 8.8475 20.965 8.65375C20.5212 8.49125 20.2875 8.3175 20.2475 8C20.2475 8 20.4825 7.78 20.38 7.7925C20.1075 7.82625 19.6125 8.775 19.6125 8.28625ZM27.4825 15C27.4825 13.7063 27.2612 12.4 27.0362 11.71C26.9637 11.4925 26.8 11.32 26.5875 11.2375C26.2675 11.1125 24.9163 11.9838 24.7125 11.555C24.5788 11.2688 24.3075 11.7375 23.9975 11.565C23.8475 11.4825 23.43 10.9212 23.2413 10.99C22.855 11.1287 23.8337 12.195 24.1012 12.335C24.3525 12.145 25.1663 11.7537 25.3413 12.2875C25.6763 13.2925 24.42 14.3938 23.7775 14.9738C22.8175 15.8413 22.9975 14.4125 22.3438 13.9087C22 13.645 22.0038 13.0838 21.6562 12.89C21.5013 12.8025 20.79 11.9837 20.7962 11.8737L20.775 12.0813C20.6575 12.17 20.4075 11.7463 20.3813 11.68C20.3813 12.0487 20.9813 12.6363 21.18 12.9313C21.5188 13.4375 21.7 14.175 22.115 14.5887C22.3375 14.8112 23.1875 15.7313 23.4087 15.7113C23.65 15.69 24.4125 15.1387 24.5475 15.17C25.3525 15.36 22.6525 19.1763 22.3962 19.6488C22.185 20.045 22.5688 21.025 22.5375 21.4937C22.5013 22.035 22.075 22.21 21.6712 22.505C21.2388 22.8212 21.34 23.4363 20.9762 23.6613C20.33 24.0588 19.865 25.3525 18.9475 25.3463C18.6775 25.345 17.5225 25.7963 17.3713 25.355C17.2537 25.035 17.0963 24.7925 16.93 24.4762C16.7675 24.1662 16.9113 23.845 16.7138 23.5713C16.5775 23.3813 16.12 22.95 16.0788 22.725C16.0763 22.5312 16.225 21.9425 16.4287 21.84C16.715 21.6938 16.4838 21.2675 16.4487 21.02C16.3888 20.5775 16.115 20.2125 15.7862 19.9562C15.3 19.5825 15.5512 19.285 15.665 18.7513C15.665 18.4963 15.51 18.1613 15.1675 18.2612C14.4625 18.4662 14.6762 17.7113 14.1625 17.745C13.7925 17.7712 13.49 18.0063 13.1462 18.11C12.7137 18.24 12.2713 18.0075 11.8438 17.9538C10.085 17.7313 9.51125 15.7212 9.97 14.2712C10.0162 14.0337 9.8275 13.5938 9.91 13.41C10.1075 12.97 10.51 12.4762 10.8625 12.1425C11.06 11.955 11.3138 12.0025 11.5463 11.8562C11.905 11.63 11.91 11.165 12.2612 10.88C12.7613 10.4738 13.4438 10.4825 14.0963 10.395C14.4438 10.3488 15.7662 10.0625 15.975 10.32C15.975 10.3675 16.2137 11.075 15.9513 11.035C16.4925 11.0638 17.2638 11.9712 17.7775 11.7587C18.0413 11.6487 17.945 10.8387 18.4862 11.23C18.8137 11.465 20.2812 11.57 20.5863 11.3163C20.7738 11.1613 20.8787 10.1537 20.6512 10.04C20.7962 10.1837 19.8875 10.195 19.8025 10.1625C19.6525 10.1075 19.5125 10.305 19.2712 10.1937C19.4163 10.2625 18.4638 9.75125 18.9988 9.36C18.775 9.52375 18.5662 9.31375 18.325 9.49375C18.1588 9.62875 18.4025 9.71875 18.165 9.83625C17.7875 10.0275 17.5025 9.18 17.36 9.08375C17.215 8.98875 16.0925 8.20125 16.3975 8.715L17.3837 9.69625C17.335 9.7275 17.125 9.33875 17.125 9.6225C17.1912 9.45375 17.15 10.3463 16.995 10.0562C16.9263 9.945 17.1075 9.8825 17.0025 9.72125C17.0025 9.615 16.7175 9.51125 16.6625 9.43875C16.5063 9.245 16.0912 8.8175 15.8663 8.715C15.8038 8.68625 14.9113 8.82375 14.8363 8.8525C14.7488 8.975 14.6737 9.10375 14.6125 9.24125C14.4275 9.31 14.2537 9.39875 14.0887 9.50875L13.8925 9.95C13.8075 10.0262 12.9363 10.3138 12.9313 10.325C12.9675 10.2312 12.3225 10.1112 12.365 9.92375C12.4125 9.7175 12.6313 9.07375 12.575 8.83875C12.515 8.5925 13.9175 9.19375 14.0075 8.545C14.0438 8.26375 14.065 7.93625 13.6162 7.88875C13.7012 7.89875 14.485 7.58125 14.615 7.43875C14.7975 7.22875 15.2163 6.88625 15.52 6.88625C15.875 6.88625 15.7988 6.37 15.9625 6.1175C16.1263 6.18375 15.875 6.5875 16.0713 6.75125C16.0588 6.6225 16.6275 6.8225 16.6825 6.7925C16.8125 6.725 17.5375 6.765 17.425 6.425C17.3 6.07875 17.4888 6.18125 17.6513 6.10875C17.6238 6.12 18.0763 5.335 18.1537 5.5925C18.1 5.3275 17.6275 5.685 17.4625 5.67125C17.0813 5.64125 17.2425 5.02125 17.3862 4.84C17.4975 4.69625 17.0825 4.52 17.0775 4.795C17.07 5.20625 16.6875 5.57875 16.7762 6.125C16.9112 6.94875 15.8575 5.92625 15.765 5.9825C15.415 6.195 15.1287 5.715 15.31 5.4275C15.495 5.13375 15.9412 5.1475 16.125 4.8325C16.255 4.61 16.4062 4.35125 16.6063 4.1825C17.275 3.62125 17.46 4.07 18.1263 4.13125C18.7775 4.19125 18.3462 4.28625 18.2562 4.53625C18.17 4.77375 18.6138 4.85875 18.7675 4.66C18.855 4.545 19.0538 4.25625 19.14 4.0425C19.2513 3.765 20.2663 3.79625 19.5575 3.3725C19.09 3.09375 17.0525 2.5325 15.6875 2.5325C15.3925 2.5325 15.1862 2.86125 14.9613 3.0475C14.5162 3.41625 13.3763 4.14 12.7425 3.92C12.0938 3.69625 10.705 4.745 10.4825 4.7525C10.4012 4.7575 10.4875 3.96 10.93 3.90125C10.7388 3.93 12.4888 3.0175 12.4412 2.8275C12.3837 2.6025 8.9425 3.855 9.09625 4.10625C9.17 4.22125 9.47 4.22125 9.07625 4.47375C8.85125 4.61 8.61125 5.475 8.4 5.475C7.76875 5.75125 7.72875 4.93125 7.02625 5.98625L5.90875 6.43625C4.24875 8.2 3.1 10.4338 2.68375 12.915C2.6675 13.0138 3.10125 13.1975 3.1575 13.265C3.2975 13.4325 3.2975 14.155 3.36625 14.3912C3.53875 14.9887 3.965 15.3213 4.29125 15.865C4.48375 16.1888 4.80375 17.0075 4.7025 17.3475C4.8375 17.125 6.04 18.3662 6.26 18.625C6.7775 19.2337 7.17625 19.9712 6.33625 20.5737C6.065 20.7687 6.74875 21.985 6.39625 22.2837L5.945 22.4C5.5 22.6737 5.70125 23.345 5.97125 23.6275C8.24375 26.0037 11.4462 27.4862 14.9963 27.4862C21.8925 27.4862 27.4825 21.8962 27.4825 15ZM13.0988 7.05375C13.255 6.985 13.465 6.9875 13.4875 6.77875C13.5063 6.59375 13.5425 6.72125 13.5875 6.65375C13.6312 6.5875 13.5037 6.48125 13.45 6.47125C13.37 6.45375 13.315 6.5575 13.2638 6.60125L13.1737 6.625L13.0887 6.73375L13.0988 6.79375L12.99 6.92625C12.8837 7.03125 12.9925 7.1 13.0988 7.05375Z"/>
</symbol><symbol viewBox="0 0 34 50" id="garanties" xmlns="http://www.w3.org/2000/svg">
<path d="M15.4377 19.8771L10.7502 15.3312L12.6856 13.3958L15.4377 16.0062L21.3147 9.98125L23.2502 11.9187L15.4377 19.8771ZM31.4293 11.9208C30.4252 14.8583 30.421 14.2938 31.4293 17.2438C31.5335 17.55 31.5835 17.8625 31.5835 18.1708C31.5835 19.1062 31.121 20.0104 30.3022 20.5792C27.6856 22.3917 28.0314 21.9354 27.0481 24.8854C26.6356 26.1167 25.4439 26.9479 24.1002 26.9479H24.0939C20.8668 26.9375 21.4272 26.7646 18.8272 28.5917C18.2814 28.975 17.6418 29.1667 17.0002 29.1667C16.3585 29.1667 15.7189 28.975 15.1752 28.5937C12.5731 26.7646 13.1335 26.9396 9.9085 26.95H9.90016C8.55641 26.95 7.36683 26.1187 6.95641 24.8875C5.971 21.9354 6.3085 22.3917 3.70225 20.5812C2.87933 20.0104 2.41683 19.1062 2.41683 18.1708C2.41683 17.8625 2.46683 17.55 2.571 17.2458C3.57725 14.3062 3.57933 14.8729 2.571 11.9229C2.46683 11.6167 2.41683 11.3042 2.41683 10.9958C2.41683 10.0583 2.87933 9.15625 3.70016 8.58542C6.30641 6.77708 5.96891 7.23542 6.95433 4.27917C7.36475 3.04792 8.55641 2.21667 9.89808 2.21667H9.90641C13.1252 2.22708 12.5543 2.41458 15.1731 0.570833C15.7189 0.189583 16.3585 0 17.0002 0C17.6418 0 18.2814 0.189583 18.8252 0.570833C21.4252 2.4 20.8668 2.22708 24.0918 2.21667H24.0981C25.4439 2.21667 26.6335 3.04792 27.046 4.27917C28.0314 7.22917 27.6856 6.77292 30.3002 8.58542C31.121 9.15417 31.5835 10.0583 31.5835 10.9937C31.5835 11.3021 31.5335 11.6167 31.4293 11.9208ZM26.896 14.5833C26.896 9.11875 22.4647 4.6875 17.0002 4.6875C11.5356 4.6875 7.10433 9.11875 7.10433 14.5833C7.10433 20.0479 11.5356 24.4792 17.0002 24.4792C22.4647 24.4792 26.896 20.0458 26.896 14.5833ZM11.5106 31.1062C9.91475 31.1062 8.65433 30.9521 7.6085 30.6625C6.96683 37.0542 4.77725 41.85 0.333496 46.4792C2.11266 46.7021 4.396 46.2833 6.23558 45.3125C6.896 46.6375 7.58975 48.2917 7.8335 50C12.0189 45.2104 14.6377 39.4708 15.6127 33.1854C13.6481 32.8083 13.0418 32.1521 11.5106 31.1062ZM22.4897 31.1062C20.9543 32.1625 20.3168 32.8146 18.3897 33.1854C19.3689 39.4708 21.9856 45.2104 26.1668 50C26.4085 48.2917 27.1022 46.6375 27.7647 45.3125C29.6043 46.2812 31.8877 46.7021 33.6668 46.4792C29.2293 41.8562 27.0668 37.0396 26.4189 30.6562C25.371 30.95 24.1022 31.1062 22.4897 31.1062Z"/>
</symbol><symbol viewBox="0 0 50 50" id="gerb" xmlns="http://www.w3.org/2000/svg">
<path fill-rule="evenodd" clip-rule="evenodd" d="M34.237 16.79C33.4553 16.1078 32.3312 16.1235 31.6861 16.3215C32.1087 15.8051 33.0927 15.3815 33.3829 15.3303C33.6036 15.4127 34.237 16.0606 34.237 16.79ZM36.7328 13.9652C36.2188 11.2279 29.828 13.0415 26.6096 11.8789C26.5479 12.6769 27.6003 13.9554 28.607 14.4287C26.8862 15.9153 25.3413 18.9105 25.0296 22.5698C24.7187 18.9105 23.1737 15.9153 21.4529 14.4287C22.4596 13.9554 23.5129 12.6769 23.4505 11.8789C20.2321 13.0415 13.8412 11.2279 13.3262 13.9652C13.2179 14.5445 13.498 15.4274 13.8005 15.6812C13.8545 15.4976 14.1371 14.897 15.0279 14.7623C19.5304 14.0852 23.2896 20.9927 19.8963 23.7856C19.8447 23.8279 19.8737 23.9064 19.9438 23.9064H30.1169C30.1862 23.9064 30.2154 23.8279 30.1645 23.7856C26.7703 20.9927 30.5295 14.0852 35.032 14.7623C35.9237 14.897 36.2052 15.4976 36.2595 15.6811C36.562 15.4274 36.842 14.5446 36.7328 13.9652ZM37.8278 7.68266C37.7471 7.42409 40.387 7.41766 40.387 9.06241C40.387 10.1647 38.8079 10.6869 38.8079 11.8309C38.8079 12.3636 39.3838 12.7544 39.5604 12.7544C39.1536 10.9178 40.8355 11.8789 41.2896 12.2224C40.3871 9.7526 42.4188 9.76817 42.2189 8.63575C42.0796 7.84425 40.3137 8.08334 39.6746 7.68266C38.5405 6.97209 37.1988 4.20691 36.3147 6.97209C37.963 8.49541 37.0038 10.7375 34.9113 10.7375C34.9113 10.7375 34.8996 11.0662 34.9187 11.0923C37.4147 10.9708 38.2846 9.14491 37.8278 7.68266ZM8.70959 12.2224C9.16384 11.8789 10.8454 10.9178 10.4397 12.7544C10.6154 12.7544 11.1912 12.3636 11.1912 11.8309C11.1912 10.6869 9.61209 10.1647 9.61209 9.06241C9.61209 7.41759 12.2522 7.42409 12.1712 7.68266C11.7154 9.14484 12.5855 10.9709 15.0813 11.0923C15.0996 11.0662 15.0879 10.7375 15.0879 10.7375C12.9962 10.7375 12.0371 8.49534 13.6847 6.97209C12.8004 4.20691 11.4587 6.97209 10.3247 7.68266C9.6855 8.08341 7.91967 7.84425 7.78042 8.63575C7.58117 9.76817 9.61209 9.75269 8.70959 12.2224ZM15.7963 16.7899C16.5786 16.1078 17.703 16.1234 18.3471 16.3215C17.9262 15.805 16.9405 15.3815 16.6513 15.3302C16.4304 15.4126 15.7963 16.0605 15.7963 16.7899ZM26.2171 1.47759L24.9996 0L23.7821 1.47759L24.9997 3.03275L26.2171 1.47759ZM33.1671 5.94566L32.3012 4.8955L31.4363 5.94566L32.3012 6.972L33.1671 5.94566ZM40.1896 36.299L39.0921 35.1429L37.9945 36.299L39.0921 37.3133L40.1896 36.299ZM18.5638 5.9455L17.6978 4.89534L16.8328 5.9455L17.6978 6.97191L18.5638 5.9455ZM16.0836 11.0922H19.3128C22.0279 11.0922 23.2495 9.4335 23.6186 7.995H26.3813C26.7505 9.43359 27.9712 11.0923 30.6871 11.0923H33.9163C33.9163 11.0923 34.481 10.3294 34.6228 9.95173C35.1328 8.59234 34.481 7.95834 33.5303 7.95834L32.3012 9.06725L31.0719 7.95834C30.1212 7.95834 29.4695 8.59234 29.9795 9.95173C30.0445 10.1256 30.2004 10.3809 30.3478 10.6052C29.2019 10.4485 27.7395 9.66779 27.4186 7.995C27.4186 7.995 28.2653 6.65616 28.4778 6.11441C29.2412 4.16616 28.2661 3.36966 26.8404 3.36966L24.9995 5.52375L23.1588 3.36966C21.7329 3.36966 20.758 4.16609 21.5221 6.11441C21.7339 6.65625 22.5814 7.99509 22.5814 7.99509C22.2597 9.66779 20.7971 10.4486 19.6513 10.6053C19.7997 10.381 19.9547 10.1256 20.0197 9.95173C20.5288 8.59241 19.8788 7.95841 18.927 7.95841L17.698 9.06734L16.4688 7.95841C15.5172 7.95841 14.8672 8.59241 15.3765 9.95173C15.5181 10.3295 16.0836 11.0922 16.0836 11.0922ZM49.4695 21.0562C48.846 21.3703 45.1894 23.0756 40.5053 22.4448C40.5538 22.2224 40.5949 21.9985 40.6287 21.7734C43.7461 21.4021 46.2804 20.8759 47.8953 19.9815C49.7362 18.9617 50.5411 16.5271 49.6119 14.7158C49.5879 14.6701 49.5212 14.6619 49.4879 14.7002C48.9788 15.2836 45.777 18.7504 40.7329 19.8282C40.72 19.5682 40.696 19.3088 40.6612 19.0507C43.1111 17.6676 45.5029 16.074 46.6421 14.617C48.3638 12.4139 48.2054 9.604 46.5671 8.17125C46.5501 8.15666 46.5277 8.15016 46.5054 8.15334C46.4833 8.15641 46.4635 8.16891 46.4512 8.18759C45.9329 9.0385 41.0813 16.8443 35.7546 20.214C35.6897 20.2554 35.6241 20.296 35.5581 20.3357C35.4055 20.4278 35.3888 20.6253 35.5189 20.7428C36.1329 21.2967 36.5147 22.0678 36.5147 22.9237C36.5147 24.4119 35.3622 25.6496 33.8388 25.9181C33.0646 26.0673 31.947 26.024 30.8737 25.671C30.8254 25.6553 30.7754 25.6871 30.7754 25.7353V30.4489C30.7754 30.5247 30.8914 30.5435 30.9188 30.4708C31.5712 28.7501 33.5245 28.3844 34.3788 28.3844C34.6863 30.2236 35.2353 31.7469 35.9488 32.5669C37.1102 33.8992 39.007 33.8806 39.8296 32.9593C39.8431 32.944 39.8489 32.9235 39.8454 32.9035C39.8417 32.8835 39.8292 32.8661 39.8111 32.8564C39.3279 32.58 36.5628 30.8903 36.0095 28.121C36.2279 28.046 36.4411 27.961 36.6453 27.8606C37.5379 29.331 38.837 30.6405 39.8827 31.1407C41.6395 31.9795 43.2478 31.5715 43.9612 30.3436C43.987 30.3003 43.9553 30.2464 43.9027 30.2415C42.8161 30.1551 39.4812 29.2037 38.0611 26.8858C38.2237 26.7371 38.3829 26.5821 38.5312 26.4173C40.0169 27.5433 42.1179 28.5387 43.622 28.7418C45.382 28.9801 47.3761 28.4212 47.4246 26.3838C47.4253 26.343 47.3888 26.3096 47.3455 26.3122C46.7195 26.3496 42.577 26.529 39.6254 24.8426C39.7279 24.6485 39.8235 24.451 39.912 24.2502C39.912 24.2502 44.3721 25.2996 46.4853 24.9518C48.5855 24.6068 49.8154 23.0485 49.5779 21.1099C49.5712 21.0615 49.5145 21.0334 49.4695 21.0562ZM10.087 24.2504C10.1758 24.4512 10.2717 24.6488 10.3744 24.8428C7.42368 26.5285 3.28284 26.3506 2.65459 26.3124C2.61043 26.3098 2.57376 26.3449 2.57451 26.3849C2.62384 28.4214 4.61717 28.9803 6.37701 28.7421C7.88051 28.5389 9.98221 27.5435 11.4679 26.4176C11.6171 26.5823 11.7755 26.7373 11.9378 26.8859C10.5171 29.2037 7.18292 30.1552 6.09626 30.2416C6.04376 30.2465 6.01293 30.3003 6.03801 30.3437C6.75134 31.5715 8.35967 31.9795 10.1172 31.1408C11.1623 30.6406 12.4614 29.3311 13.3539 27.8609C13.5588 27.9611 13.7721 28.046 13.9896 28.1211C13.4362 30.8903 10.6714 32.5801 10.1879 32.8565C10.1701 32.8663 10.1576 32.8837 10.1541 32.9036C10.1505 32.9236 10.1562 32.944 10.1696 32.9594C10.9921 33.8806 12.8897 33.8993 14.0511 32.567C14.7647 31.7469 15.313 30.2237 15.6204 28.3846C16.4753 28.3846 18.4278 28.7503 19.0804 30.4709C19.1086 30.5435 19.2244 30.5247 19.2244 30.4489V25.7353C19.2244 25.6872 19.1737 25.6554 19.1253 25.671C18.0521 26.024 16.9346 26.0674 16.1612 25.9181C14.637 25.6497 13.4846 24.412 13.4846 22.9237C13.4846 22.0678 13.867 21.296 14.4803 20.7419C14.6112 20.6252 14.5937 20.4278 14.442 20.3356C14.3755 20.2959 14.3093 20.2553 14.2436 20.2139C8.92034 16.846 4.07118 9.04584 3.54868 8.18909C3.52443 8.14909 3.46609 8.141 3.43026 8.17191C1.79443 9.6055 1.63526 12.4146 3.35692 14.6168C4.49617 16.0739 6.88768 17.6675 9.33692 19.0505C9.30242 19.3086 9.27876 19.5679 9.26618 19.8279C4.22617 18.751 1.027 15.2897 0.512758 14.7024C0.478675 14.6624 0.410176 14.6706 0.386926 14.7162C-0.540408 16.5285 0.264508 18.9615 2.10376 19.9814C3.71876 20.8756 6.25284 21.4018 9.37043 21.7731C9.40409 21.9983 9.44517 22.2222 9.49367 22.4446C4.81451 23.0745 1.15951 21.3735 0.531176 21.0567C0.484509 21.0331 0.427841 21.0625 0.422008 21.1114C0.185508 23.0501 1.4145 24.6068 3.51451 24.9518C5.62701 25.2996 10.087 24.2504 10.087 24.2504ZM39.092 38.8022L37.467 37.5294C36.8186 37.9137 36.342 38.5241 36.157 39.2397C35.1795 39.376 32.5145 38.7868 32.7735 38.3961C35.6944 34.3066 33.4602 31.872 30.7753 32.0074V34.7539C30.7753 35.6359 30.0019 36.3506 29.0495 36.3506H27.1954C25.8653 36.3506 24.9995 37.6813 24.9995 37.6813C24.9995 37.6813 24.1337 36.3506 22.8038 36.3506H20.9496C19.9965 36.3506 19.2247 35.6359 19.2247 34.7539V32.0075C16.5397 31.8721 14.3038 34.3068 17.2255 38.3962C17.4822 38.7829 14.743 39.4022 13.4581 39.2455C13.1197 38.8962 12.6313 38.676 12.0846 38.676C11.8522 38.6761 11.6217 38.7172 11.4037 38.7976C11.4037 38.7976 6.35467 34.0391 6.26217 33.9927L6.30384 33.8963C6.59134 33.3612 6.15134 32.7778 5.87309 32.8187C6.19634 32.4328 6.21142 30.7429 4.41809 30.3521C4.47051 30.6915 4.49718 31.3842 4.49718 31.3842C4.49718 31.3842 3.1131 30.6392 2.41801 31.2822C1.80726 32.0019 2.65484 33.3073 2.65484 33.3073C2.65484 33.3073 1.94642 33.3244 1.59734 33.2951C2.11068 35.0232 3.83234 34.9008 4.20484 34.5597C4.18059 34.8347 4.80326 35.2263 5.33068 34.9122L5.56234 34.8004C5.60318 34.855 10.5206 39.4797 10.5206 39.4797C10.2948 39.8135 10.1874 40.223 10.2615 40.6595C10.3782 41.3416 10.9491 41.9071 11.6782 42.0538C12.1932 42.1567 12.6773 42.0572 13.0657 41.8311L14.3674 43.0338C14.4832 43.1384 14.6399 43.2035 14.8149 43.1913C15.1332 43.1701 15.3715 42.913 15.3474 42.6186C15.3374 42.4855 15.2691 42.3714 15.1749 42.2848C15.154 42.2619 13.849 41.056 13.849 41.056C14.9256 40.3045 16.9314 39.7751 18.5965 39.7751C18.8889 39.7751 19.0263 39.5288 18.9256 39.2871C18.1713 37.4815 19.7931 36.1737 21.4706 37.2385C22.2023 37.7027 22.9457 38.6173 23.5056 40.143C20.753 40.8065 17.2973 42.6339 16.5981 44.6289C16.329 45.3992 17.2182 46.4492 18.2982 46.6607C18.3172 46.6648 18.3373 46.6613 18.3538 46.6507C18.3702 46.6401 18.3817 46.6234 18.3856 46.6042C18.9498 43.6262 22.1673 41.4067 23.8415 41.0298C23.9257 41.2541 23.8981 41.1815 23.9823 41.4052C22.159 42.2635 20.3907 44.074 19.8857 46.2263C19.654 47.212 20.7582 48.1005 21.6698 48.3438C21.7155 48.3559 21.7607 48.324 21.7632 48.2801C21.9365 45.5582 23.144 43.2466 24.2256 42.195C24.2552 42.4005 24.2775 42.6071 24.2923 42.8142C24.2923 42.8142 23.1848 45.8862 23.1848 48.1275C23.1848 49.1702 24.7415 49.898 24.9715 50C25.2589 49.898 26.8148 49.1702 26.8148 48.1275C26.8148 45.8861 25.7074 42.8142 25.7074 42.8142C25.7224 42.6071 25.7449 42.4005 25.7748 42.195C26.8556 43.2466 28.0639 45.5573 28.2365 48.2791C28.239 48.3233 28.2849 48.356 28.3296 48.3437C29.2422 48.1006 30.3457 47.2121 30.1147 46.2265C29.6088 44.074 27.8414 42.2637 26.018 41.4054C26.1014 41.1816 26.074 41.2542 26.1581 41.0299C27.8332 41.4068 31.0497 43.6261 31.6139 46.6041C31.618 46.6233 31.6295 46.6399 31.646 46.6505C31.6624 46.6611 31.6824 46.6647 31.7015 46.6606C32.7806 46.4492 33.6714 45.3991 33.4006 44.629C32.7032 42.634 29.2464 40.8065 26.494 40.1431C27.0548 38.6173 27.7981 37.7028 28.5298 37.2385C30.2064 36.1737 31.8281 37.4816 31.0739 39.2873C30.973 39.5287 31.1096 39.7751 31.4031 39.7751C33.2863 39.7751 35.6062 40.4523 36.5245 41.3605C37.1113 42.2367 38.1954 42.7973 39.4188 42.6772C40.8087 42.5419 41.9421 41.5023 42.0988 40.2174C42.2355 39.0914 41.6505 38.0804 40.718 37.5297L39.092 38.8022ZM27.1144 30.5998C27.6937 30.3862 28.6012 30.5591 28.5704 31.3913C28.5629 31.5797 28.8288 31.5797 28.8479 31.3872C29.0212 30.1413 28.1753 29.7822 27.2903 29.9284C27.1804 29.4999 27.0904 29.1255 26.9879 28.7542C26.9063 28.454 26.8762 27.8902 27.2254 27.8902C27.4138 27.8902 27.338 28.4148 27.3205 28.6408C27.3046 28.839 27.3763 28.959 27.538 28.9647C27.6389 28.9688 27.7648 28.8408 27.8397 28.7558C28.3464 28.1855 28.4639 27.3028 27.8706 26.8769C27.374 26.5194 26.1306 26.7854 25.7888 27.2945C25.7373 27.1028 25.4906 26.7862 25.3721 26.6483C25.2573 26.5137 25.2272 26.4215 25.3865 26.3033C25.4614 26.2461 25.6881 26.0218 25.6881 25.79C25.6881 25.653 25.5815 25.4 25.2423 25.4C24.9747 25.4 24.6772 25.5844 24.6772 25.9956C24.6772 26.0871 24.6997 26.1851 24.7589 26.2903C24.5896 26.2625 24.1306 26.2739 23.8948 26.3318L27.1556 35.2391C28.0889 34.7806 28.7731 34.0545 28.7731 33.2753C28.7731 32.6111 27.7904 32.8314 27.313 33.3496C27.1597 32.5076 27.023 31.73 26.8739 30.9547C26.8331 30.741 26.942 30.6642 27.1144 30.5998ZM22.5037 24.5491L23.1887 26.4437C22.6021 26.5824 21.6588 27.0083 21.6588 27.572C21.6588 28.3228 22.9929 28.8114 23.7646 28.7527C23.7261 28.924 23.7704 29.0765 23.8905 29.2161C23.6104 29.2161 23.0821 29.3459 22.9088 29.5318C22.4996 29.1524 21.8596 29.0145 21.5554 29.2455C21.2496 29.478 21.2405 29.8721 21.5596 30.3176C21.782 30.626 21.8654 30.9304 21.6154 31.2877C22.5455 31.2877 22.2028 30.0842 22.5671 30.0842C22.5196 30.3176 22.5487 30.5877 22.6546 30.8871C22.7246 31.0862 22.7246 31.2273 22.6047 31.419C22.3047 31.8964 21.838 32.9929 21.9014 33.9843C21.5964 33.9826 21.4413 33.9084 21.5488 33.4939C21.5889 33.3396 21.493 33.2295 21.3664 33.4197C21.2263 33.6293 21.1589 33.9875 21.1589 34.1408C21.1589 35.0237 22.2155 35.2015 22.6188 35.0147C23.7855 36.1386 26.0771 35.8388 26.8446 35.4618L22.8097 24.4412C22.7272 24.2333 22.4312 24.3329 22.5037 24.5491ZM22.3637 33.6269C22.2803 33.1732 22.9145 32.3622 23.7212 31.5798C23.5496 32.0897 23.6562 32.9685 23.9928 33.2712C23.4077 33.2712 22.7128 33.3805 22.3637 33.6269Z"/>
</symbol><symbol viewBox="0 0 42 41" id="hearth" xmlns="http://www.w3.org/2000/svg">
<path d="M10.9914 0C5.4222 0 0 4.16606 0 11.7921C0 20.2768 9.1245 29.3924 19.5363 40.3554C19.9437 40.7859 20.4729 41 21 41C21.5271 41 22.0563 40.7859 22.4637 40.3554C32.9154 29.3514 42 20.2791 42 11.7921C42 4.15467 36.582 0.0205001 31.0191 0.0205001C27.1635 0.0205001 23.3625 1.99306 21 5.83794C18.627 1.97483 14.8365 0 10.9914 0ZM10.9914 3.41667C15.1704 3.41894 17.7156 6.4985 19.7169 9.56667C20.0109 10.0177 20.4897 10.2864 21 10.2887C21.5103 10.2887 21.9891 10.0222 22.2852 9.5735C24.2907 6.52356 26.8842 3.43717 31.0191 3.43717C34.7907 3.43717 38.85 6.05206 38.85 11.7921C38.85 17.876 32.7999 24.7139 21 37.1369C9.5466 25.0988 3.15 18.0286 3.15 11.7921C3.15 9.22956 3.9669 7.07933 5.5104 5.58056C6.9237 4.20478 8.9229 3.41667 10.9914 3.41667Z"/>
</symbol><symbol viewBox="0 0 17 15" id="hearth-black" xmlns="http://www.w3.org/2000/svg">
<path d="M4.31805 0C2.13015 0 0 1.52417 0 4.31417C0 7.41833 3.58463 10.7533 7.67498 14.7642C7.83503 14.9217 8.04292 15 8.25 15C8.45708 15 8.66497 14.9217 8.82502 14.7642C12.931 10.7383 16.5 7.41917 16.5 4.31417C16.5 1.52 14.3715 0.00750005 12.1861 0.00750005C10.6714 0.00750005 9.17812 0.729167 8.25 2.13583C7.31775 0.7225 5.82863 0 4.31805 0ZM4.31805 1.25C5.9598 1.25083 6.9597 2.3775 7.74592 3.5C7.86142 3.665 8.04953 3.76333 8.25 3.76417C8.45047 3.76417 8.63858 3.66667 8.7549 3.5025C9.54278 2.38667 10.5616 1.2575 12.1861 1.2575C13.6678 1.2575 15.2625 2.21417 15.2625 4.31417C15.2625 6.54 12.8857 9.04167 8.25 13.5867C3.75045 9.1825 1.2375 6.59583 1.2375 4.31417C1.2375 3.37667 1.55843 2.59 2.1648 2.04167C2.72003 1.53833 3.50543 1.25 4.31805 1.25Z"/>
</symbol><symbol viewBox="0 0 22 20" id="hearth-m" xmlns="http://www.w3.org/2000/svg">
<path d="M5.7574 0C2.8402 0 0 2.03222 0 5.75222C0 9.89111 4.7795 14.3378 10.2333 19.6856C10.4467 19.8956 10.7239 20 11 20C11.2761 20 11.5533 19.8956 11.7667 19.6856C17.2414 14.3178 22 9.89222 22 5.75222C22 2.02667 19.162 0.0100001 16.2481 0.0100001C14.2285 0.0100001 12.2375 0.972222 11 2.84778C9.757 0.963333 7.7715 0 5.7574 0ZM5.7574 1.66667C7.9464 1.66778 9.2796 3.17 10.3279 4.66667C10.4819 4.88667 10.7327 5.01778 11 5.01889C11.2673 5.01889 11.5181 4.88889 11.6732 4.67C12.7237 3.18222 14.0822 1.67667 16.2481 1.67667C18.2237 1.67667 20.35 2.95222 20.35 5.75222C20.35 8.72 17.1809 12.0556 11 18.1156C5.0006 12.2433 1.65 8.79445 1.65 5.75222C1.65 4.50222 2.0779 3.45333 2.8864 2.72222C3.6267 2.05111 4.6739 1.66667 5.7574 1.66667Z"/>
</symbol><symbol viewBox="0 0 32 32" id="inst" xmlns="http://www.w3.org/2000/svg">
<path d="M20.3107 7.31733C19.1867 7.26667 18.848 7.256 16 7.256C13.152 7.256 12.8147 7.26667 11.6907 7.31733C8.79733 7.44933 7.44933 8.82 7.31867 11.6893C7.26667 12.8147 7.25467 13.152 7.25467 16C7.25467 18.848 7.26667 19.1853 7.31733 20.3107C7.44933 23.1747 8.792 24.5507 11.6893 24.6827C12.8133 24.7333 13.152 24.7453 16 24.7453C18.8493 24.7453 19.1867 24.7347 20.3107 24.684C23.204 24.552 24.5507 23.1787 24.6827 20.312C24.7333 19.1867 24.744 18.8493 24.744 16.0013C24.744 13.1533 24.7333 12.816 24.6827 11.692C24.5507 8.82133 23.2013 7.44933 20.3107 7.31733ZM16 21.4773C12.9747 21.4773 10.5227 19.0253 10.5227 16C10.5227 12.9747 12.976 10.5227 16 10.5227C19.024 10.5227 21.4773 12.9747 21.4773 16C21.4773 19.0253 19.0253 21.4773 16 21.4773ZM21.6947 11.5867C20.988 11.5867 20.4147 11.0133 20.4147 10.3067C20.4147 9.6 20.988 9.02667 21.6947 9.02667C22.4013 9.02667 22.9747 9.6 22.9747 10.3067C22.9747 11.0133 22.4013 11.5867 21.6947 11.5867ZM19.556 16C19.556 17.964 17.964 19.556 16 19.556C14.036 19.556 12.444 17.964 12.444 16C12.444 14.036 14.036 12.444 16 12.444C17.964 12.444 19.556 14.036 19.556 16ZM25.3333 0H6.66667C2.98533 0 0 2.98533 0 6.66667V25.3333C0 29.0147 2.98533 32 6.66667 32H25.3333C29.016 32 32 29.0147 32 25.3333V6.66667C32 2.98533 29.016 0 25.3333 0ZM26.6027 20.3973C26.4267 24.276 24.268 26.4253 20.3987 26.6027C19.26 26.6547 18.8973 26.6667 16 26.6667C13.1027 26.6667 12.7413 26.6547 11.6027 26.6027C7.72533 26.4253 5.576 24.272 5.39733 20.3973C5.34533 19.26 5.33333 18.8973 5.33333 16C5.33333 13.104 5.34533 12.74 5.39733 11.6027C5.576 7.72533 7.728 5.57467 11.6027 5.39867C12.7413 5.34533 13.1027 5.33333 16 5.33333C18.8973 5.33333 19.26 5.34533 20.3987 5.39733C24.276 5.57467 26.4293 7.732 26.6027 11.6013C26.6547 12.74 26.6667 13.104 26.6667 16C26.6667 18.8973 26.6547 19.26 26.6027 20.3973Z"/>
</symbol><symbol viewBox="0 0 122.88 92.65" id="money" xmlns="http://www.w3.org/2000/svg"><path d="M0 39.37h24.83v44.18H0V39.37zM81.73 0c12.2 0 22.11 9.89 22.11 22.11 0 12.2-9.89 22.11-22.11 22.11-12.2 0-22.11-9.89-22.11-22.11C59.63 9.91 69.52 0 81.73 0zM71.12 26.69h5.12v-2.56h-5.12v-3.74h5.12v-9.73h8.16c1.56 0 2.95.29 4.15.86 1.2.58 2.13 1.4 2.79 2.46.66 1.06.99 2.27.99 3.62 0 1.99-.71 3.59-2.14 4.78-1.43 1.19-3.39 1.79-5.88 1.79h-3.15v2.52h7.59v3.74h-7.59v3.14h-4.93v-3.14h-5.12v-3.74h.01zm10.05-6.33h3.23c.96 0 1.68-.24 2.19-.72.5-.48.75-1.16.75-2.03 0-.95-.26-1.72-.78-2.29-.51-.57-1.21-.86-2.1-.87h-3.29v5.91zM29.83 79.84V42.91h16.61c7.04 1.26 14.08 5.08 21.12 9.51h12.9c5.84.35 8.9 6.27 3.22 10.16-4.52 3.32-10.49 3.13-16.61 2.58-4.22-.21-4.4 5.46 0 5.48 1.53.12 3.19-.24 4.64-.24 7.64-.01 13.92-1.47 17.77-7.5l1.93-4.51 19.19-9.51c9.6-3.16 16.42 6.88 9.35 13.87-13.9 10.11-28.15 18.43-42.73 25.15-10.59 6.44-21.18 6.22-31.76 0l-15.63-8.06z" fill-rule="evenodd" clip-rule="evenodd"/></symbol><symbol viewBox="0 0 24 24" id="phone" xmlns="http://www.w3.org/2000/svg">
<path d="M12 2C17.514 2 22 6.486 22 12C22 17.514 17.514 22 12 22C6.486 22 2 17.514 2 12C2 6.486 6.486 2 12 2ZM12 0C5.373 0 0 5.373 0 12C0 18.627 5.373 24 12 24C18.627 24 24 18.627 24 12C24 5.373 18.627 0 12 0ZM16.5 17.311L14.74 13.914L13.708 14.419C12.588 14.962 10.308 10.509 11.403 9.922L12.445 9.409L10.698 6L9.645 6.52C6.044 8.397 11.762 19.511 15.445 17.828L16.5 17.311Z"/>
</symbol><symbol viewBox="0 0 17 16" id="star" xmlns="http://www.w3.org/2000/svg">
<path d="M7.76833 0.3525C7.87333 0.136667 8.09333 0 8.33333 0C8.57417 0 8.79333 0.136667 8.89833 0.3525C9.71 2.0175 11.1067 4.88583 11.1067 4.88583C11.1067 4.88583 14.2825 5.3225 16.125 5.57667C16.4608 5.6225 16.6667 5.90667 16.6667 6.19917C16.6667 6.3575 16.6067 6.51833 16.4742 6.64583C15.1325 7.9275 12.8225 10.1383 12.8225 10.1383C12.8225 10.1383 13.3867 13.2775 13.7133 15.0983C13.7825 15.4833 13.4842 15.8333 13.095 15.8333C12.9933 15.8333 12.8917 15.8092 12.7992 15.7592C11.1592 14.8858 8.33333 13.3833 8.33333 13.3833C8.33333 13.3833 5.5075 14.8858 3.8675 15.7592C3.775 15.8092 3.6725 15.8333 3.57083 15.8333C3.18333 15.8333 2.88333 15.4825 2.95333 15.0983C3.28083 13.2775 3.845 10.1383 3.845 10.1383C3.845 10.1383 1.53417 7.9275 0.193333 6.64583C0.0600001 6.51833 0 6.3575 0 6.2C0 5.90667 0.2075 5.62167 0.5425 5.57667C2.385 5.3225 5.56 4.88583 5.56 4.88583C5.56 4.88583 6.9575 2.0175 7.76833 0.3525Z"/>
</symbol><symbol viewBox="0 0 32 32" id="vk" xmlns="http://www.w3.org/2000/svg">
<path d="M25.3333 0H6.66667C2.98533 0 0 2.98533 0 6.66667V25.3333C0 29.0147 2.98533 32 6.66667 32H25.3333C29.016 32 32 29.0147 32 25.3333V6.66667C32 2.98533 29.016 0 25.3333 0ZM25.6667 22.6613H22.8213C21.2147 22.6613 20.9427 21.7453 19.62 20.4227C18.424 19.2267 17.76 20.144 17.788 21.8467C17.796 22.2987 17.5733 22.6613 17.0333 22.6613C15.348 22.6613 12.9267 22.8987 10.476 20.2533C7.96533 17.5427 5.33333 12.1053 5.33333 11.5693C5.33333 11.2533 5.59467 11.1107 6.032 11.1107H8.92533C9.69067 11.1107 9.756 11.4893 9.96933 11.976C10.8587 14.004 12.9893 18.0747 13.556 15.8027C13.8813 14.4987 14.0147 11.476 12.6187 11.216C11.8267 11.0693 13.2213 10.2213 15.2427 10.2213C15.7453 10.2213 16.2907 10.276 16.8493 10.404C17.8747 10.6427 17.8773 11.1013 17.864 11.772C17.812 14.3093 17.5053 16.0173 18.1747 16.448C18.8133 16.8613 20.4933 14.1587 21.3787 12.0733C21.6227 11.496 21.6707 11.1107 22.3573 11.1107H25.896C27.7493 11.1107 25.6533 13.7733 24.052 15.8533C22.7613 17.5267 22.8307 17.56 24.3307 18.952C25.4013 19.944 26.664 21.2987 26.664 22.0667C26.6667 22.4293 26.384 22.6613 25.6667 22.6613Z"/>
</symbol><symbol viewBox="0 0 31 32" id="whatsup" xmlns="http://www.w3.org/2000/svg">
<path d="M15.5465 7.11867C10.8513 7.11867 7.03312 11.06 7.03054 15.904C7.02925 17.8813 7.59112 19.3627 8.53404 20.912L7.67379 24.1547L10.8952 23.2827C12.338 24.1667 13.7162 24.6973 15.5387 24.6973C20.2301 24.6973 24.0521 20.756 24.0534 15.9107C24.0573 11.056 20.2533 7.12 15.5465 7.11867ZM20.553 19.6827C20.3399 20.3 19.3169 20.8627 18.826 20.9387C18.3856 21.0067 17.8276 21.0347 17.214 20.8347C16.842 20.7133 16.3654 20.5507 15.7557 20.2787C13.1892 19.1347 11.5126 16.4667 11.3847 16.2907C11.2569 16.1147 10.3398 14.8587 10.3398 13.5587C10.3398 12.2587 11.0011 11.62 11.2349 11.3547C11.47 11.088 11.7464 11.0213 11.9169 11.0213L12.4077 11.0307C12.5653 11.0387 12.7759 10.9693 12.9838 11.484C13.197 12.0133 13.7085 13.3133 13.773 13.4453C13.8363 13.5773 13.8802 13.732 13.7937 13.908C13.7085 14.084 13.6658 14.1947 13.538 14.348L13.1543 14.8107C13.0265 14.9427 12.8934 15.0853 13.042 15.3493C13.1918 15.6133 13.7046 16.4787 14.4654 17.1787C15.4432 18.0787 16.2673 18.3573 16.523 18.4893C16.7787 18.6213 16.9286 18.6 17.0771 18.4227C17.227 18.2467 17.7165 17.652 17.887 17.3867C18.0575 17.1213 18.228 17.1667 18.4631 17.2547C18.6982 17.3427 19.9562 17.9813 20.212 18.1147C20.4677 18.2467 20.6382 18.3133 20.7028 18.4227C20.7661 18.536 20.7661 19.0653 20.553 19.6827ZM24.5417 0H6.45833C2.89204 0 0 2.98533 0 6.66667V25.3333C0 29.0147 2.89204 32 6.45833 32H24.5417C28.1092 32 31 29.0147 31 25.3333V6.66667C31 2.98533 28.1092 0 24.5417 0ZM15.5426 26.4827C13.8286 26.4827 12.1404 26.0387 10.6446 25.196L5.21575 26.6667L6.66887 21.1893C5.77246 19.5867 5.301 17.768 5.30229 15.904C5.30487 10.0747 9.89804 5.33333 15.5426 5.33333C18.2822 5.33467 20.854 6.436 22.7876 8.43333C24.7212 10.4307 25.7855 13.088 25.7842 15.912C25.7817 21.7413 21.1872 26.4827 15.5426 26.4827Z"/>
</symbol><symbol viewBox="0 0 36 36" id="yandex" xmlns="http://www.w3.org/2000/svg">
<g clip-path="url(#sclip0_65_625)">
<path d="M18.0002 35.1819C20.2565 35.1819 22.4908 34.7375 24.5754 33.874C26.66 33.0105 28.5541 31.7449 30.1496 30.1494C31.745 28.554 33.0106 26.6598 33.8741 24.5753C34.7376 22.4907 35.182 20.2564 35.182 18.0001C35.182 15.7437 34.7376 13.5095 33.8741 11.4249C33.0106 9.34026 31.745 7.44615 30.1496 5.85068C28.5541 4.2552 26.66 2.98959 24.5754 2.12613C22.4908 1.26266 20.2565 0.818237 18.0002 0.818237C13.4433 0.818237 9.07301 2.62846 5.8508 5.85068C2.62858 9.07289 0.818359 13.4432 0.818359 18.0001C0.818359 22.557 2.62858 26.9272 5.8508 30.1494C9.07301 33.3717 13.4433 35.1819 18.0002 35.1819Z"/>
<path d="M20.7002 28.7428H24.4393V7.24915H18.9902C13.5084 7.24915 10.6284 10.0637 10.6284 14.2037C10.6284 17.4928 12.2075 19.4646 15.022 21.4691L10.1211 28.7346H14.1875L19.6365 20.6019L17.7384 19.3419C15.4475 17.7873 14.3265 16.5928 14.3265 13.991C14.3265 11.7082 15.9384 10.1619 19.0065 10.1619H20.6838V28.7346H20.692L20.7002 28.7428Z"/>
</g>
<defs>
<clipPath id="sclip0_65_625">
<rect width="36" height="36"/>
</clipPath>
</defs>
</symbol><symbol viewBox="0 0 32 32" id="youtube" xmlns="http://www.w3.org/2000/svg">
<path d="M13.3333 12.444L20.444 15.9933L13.3333 19.556V12.444ZM32 6.66667V25.3333C32 29.0147 29.016 32 25.3333 32H6.66667C2.98533 32 0 29.0147 0 25.3333V6.66667C0 2.98533 2.98533 0 6.66667 0H25.3333C29.016 0 32 2.98533 32 6.66667ZM26.6667 16C26.64 10.5027 26.236 8.4 22.7693 8.164C19.5653 7.94533 12.4307 7.94667 9.232 8.164C5.768 8.4 5.36 10.4933 5.33333 16C5.36 21.4973 5.764 23.6 9.23067 23.836C12.4293 24.0533 19.564 24.0547 22.768 23.836C26.232 23.6 26.64 21.5067 26.6667 16Z"/>
</symbol></svg>